# xmcd CD database file
#
# Track frame offsets:
#	150
#	26114
#	45648
#	70279
#	90640
#	114483
#	136655
#	150988
#	179084
#	198018
#	218827
#	246232
#
# Disc length: 3646 seconds
#
# Revision: 0
# Processed by: cddbd v1.5.2PL0 Copyright (c) Steve Scherf et al.
# Submitted via: CDex 1.70beta2
#
DISCID=a10e3c0c
DTITLE=Freddy Cole - Freddy Cole Sings Mr.B
DYEAR=2010
DGENRE=Jazz
TTITLE0=Tender Is the Night
TTITLE1=Cottage For Sale
TTITLE2=Portrait
TTITLE3=I Apologize
TTITLE4=Jelly Jelly
TTITLE5=Somehow
TTITLE6=To Be Or Not To Be In Love
TTITLE7=Pretty One
TTITLE8=Ma, She's Makin' Eyes at Me
TTITLE9=The High and the Mighty
TTITLE10=No Orchids for My Lady
TTITLE11=Mister, You've Gone and Got the Blues
EXTD=YEAR: 2010
EXTT0=
EXTT1=
EXTT2=
EXTT3=
EXTT4=
EXTT5=
EXTT6=
EXTT7=
EXTT8=
EXTT9=
EXTT10=
EXTT11=
PLAYORDER=
